<svg xmlns="http://www.w3.org/2000/svg" viewBox="0 0 24 24"><style>.st2{fill:none;stroke:#1078ff;stroke-linecap:round;stroke-linejoin:round;stroke-miterlimit:10}</style><g id="Duotone"><path fill="#fff" d="M21 6.5h-3l-2.5-5h-5L8 4.5H4L.5 10 4 14.5h16l2.5-3.5z"/><path fill="#cce7ff" d="M22.5 11h-3L18 12H6l-2-2H.5L4 14.5h16z"/><path class="st2" d="M8.5 14.5v9M5.5 20.5l3 3 3-3M14.5 19.5v-9M17.5 13.5l-3-3-3 3"/><path class="st2" d="M19.5 14.5h.5l2.5-3.5L21 6.5h-3l-2.5-5h-5L8 4.5H4L.5 10 4 14.5h1.5M14.5 6.5H18"/></g><path fill="none" d="M0 0h24v24H0z" id="Frames-24px"/></svg>